<svg xmlns="http://www.w3.org/2000/svg" xmlns:se="http://svg-edit.googlecode.com" xmlns:xlink="http://www.w3.org/1999/xlink" xmlns:dc="http://purl.org/dc/elements/1.1/" xmlns:cc="http://creativecommons.org/ns#" xmlns:rdf="http://www.w3.org/1999/02/22-rdf-syntax-ns#" xmlns:inkscape="http://www.inkscape.org/namespaces/inkscape" width="777" height="480" style="">                                    <title>my vector image</title>                                    <!-- Created with Vector Paint - http://www.vectorpaint.yaks.com/ https://chrome.google.com/webstore/detail/hnbpdiengicdefcjecjbnjnoifekhgdo -->                                    <rect id="backgroundrect" width="100%" height="100%" x="0" y="0" fill="#FFFFFF" stroke="none"/>                                <g class="currentLayer" style=""><title>Layer 1</title><rect fill="#4a90d6" stroke="#222222" stroke-width="0" stroke-linejoin="round" stroke-dashoffset="" fill-rule="nonzero" id="svg_1" x="380" y="160" width="407" height="57" style="color: rgb(0, 0, 0);"/><path fill="#4a90d6" fill-opacity="1" stroke="#222222" stroke-opacity="1" stroke-width="0" stroke-dasharray="none" stroke-linejoin="round" stroke-linecap="butt" stroke-dashoffset="" fill-rule="nonzero" opacity="1" marker-start="" marker-mid="" marker-end="" d="M508,231.5 C508,194.20718232044197 537.9834254143647,164 575,164 C612.0165745856353,164 642,194.20718232044197 642,231.5 C642,268.792817679558 612.0165745856353,299 575,299 C537.9834254143647,299 508,268.792817679558 508,231.5 Z" id="svg_3"/><path fill="#4a90d6" fill-opacity="1" stroke="#222222" stroke-opacity="1" stroke-width="0" stroke-dasharray="none" stroke-linejoin="round" stroke-linecap="butt" stroke-dashoffset="" fill-rule="nonzero" opacity="1" marker-start="" marker-mid="" marker-end="" d="M380,214.5 C380,165.6049723756906 419.38121546961327,126 468,126 C516.6187845303867,126 556,165.6049723756906 556,214.5 C556,263.39502762430936 516.6187845303867,303 468,303 C419.38121546961327,303 380,263.39502762430936 380,214.5 Z" id="svg_5"/><rect fill="#4a90d6" stroke="#222222" stroke-width="0" stroke-linejoin="round" stroke-dashoffset="" fill-rule="nonzero" id="svg_7" x="380" y="123" width="410" height="97" style="color: rgb(0, 0, 0);"/><rect fill="#4a90d6" stroke="#222222" stroke-width="0" stroke-linejoin="round" stroke-dashoffset="" fill-rule="nonzero" id="svg_9" x="467" y="123" width="323" height="180" style="color: rgb(0, 0, 0);"/></g></svg>